<svg xmlns="http://www.w3.org/2000/svg" viewBox="0 0 346.17 154.69"><defs><style>.cls-1{fill:#282426;}</style></defs><title>Recurso 1</title><g id="Capa_2" data-name="Capa 2"><g id="Capa_1-2" data-name="Capa 1"><path class="cls-1" d="M72.42,7a19.71,19.71,0,0,1,.11,2.19V30.1a34.15,34.15,0,0,1-.32,5.68,3.62,3.62,0,0,1-1.56,2.45,12,12,0,0,1-4.37.94q-4,.21-8.34.21l-10.31-.32c-3.12-.07-6.15,0-9.06.11V60.1a28.9,28.9,0,0,0,4.89.21H53.88c1.25.07,3,.11,5.31.11q5.63,0,5.63,2.6a2.06,2.06,0,0,1-.11.83,20.3,20.3,0,0,1,.52,7.61q-.41,4.07-.41,9.27,0,4.48.31,8.23a15.92,15.92,0,0,1-.83,6.66c0,.77-.77,1.25-2.29,1.46a42.67,42.67,0,0,1-7.3.42c-1.25,0-2.29,0-3.12-.1-1.81,0-3.16,0-4.06-.11q-.73,0-8.55-.31a102,102,0,0,0-.72,14.48l.2,14.69c0,1.59,0,2.81.11,3.64v3.65a89.69,89.69,0,0,1-1.25,16.35,58.68,58.68,0,0,1-15.63,2,134.26,134.26,0,0,1-20.21-1.25Q.13,144.79.13,129.58q0-21.56.31-41.77Q.65,61.16.65,48.23.65,42.08.44,30,.23,18.12.23,11.88V9.48C.23,9.06.16,8.23,0,7A3.68,3.68,0,0,1,1.28,4,3.9,3.9,0,0,1,4.4,2.5Q23.15,2,39.51,2h5.2c1,.07,2.61.1,4.69.1l19.27.42a4.33,4.33,0,0,1,2.09,1A3.43,3.43,0,0,0,72.32,4.9,7.8,7.8,0,0,0,72.42,7ZM4.82,74c.83-.49,1.14-1.08.94-1.77a6.57,6.57,0,0,0-1.67,0ZM10.76,57.5c0-.76.27-1.21.83-1.35a5.83,5.83,0,0,0,1.56-.73l.52.93L14.82,56a3.2,3.2,0,0,1,.52,1.67A2.5,2.5,0,0,0,17.53,56a.6.6,0,0,1-.42.11.75.75,0,0,1-.83-.73.89.89,0,0,0-.94-.63h-.21a.42.42,0,0,1-.31.11l-.73-.73-.94.21V53.23h-.42a12.72,12.72,0,0,0-1.66.21,12.53,12.53,0,0,1-1.88.21,2.63,2.63,0,0,1-2.71-1.46v5a2.69,2.69,0,0,0,2,.31,3.91,3.91,0,0,1,2.4.73C10.79,58.16,10.76,57.92,10.76,57.5Zm-.63,9.17a4.84,4.84,0,0,0,1.35-1.88,3.41,3.41,0,0,1-2.91-1.66c-.21-.28-.52-.77-.94-1.46a3.91,3.91,0,0,0-1.15-1.25,9.13,9.13,0,0,0,1.25,4.06,8.48,8.48,0,0,1,.94,3c0,.28-.24.66-.73,1.15A2,2,0,0,0,7.21,70c0,.35.32.52.94.52l1.15-.21A3.63,3.63,0,0,1,9,68.85,2.77,2.77,0,0,1,10.13,66.67ZM7.94,121.35c.77.35,1.15.07,1.15-.83s-.38-1.18-1.15-.83Zm.94-24.16.21.1v-.1H8.88Zm2.4-18.86q.62-1.24-.42-1.56a.66.66,0,0,0-.68.16c-.17.17-.19.47,0,.88L9.3,78a1.94,1.94,0,0,1,.83.63h.1l-.62.2H9V80h1.15V78.85l.83.32Zm-2.09,19,.32.11A.44.44,0,0,0,9.19,97.29ZM11,79.17a3.22,3.22,0,0,1-.73-.52Zm3.65,45c.21,0,.38-.18.52-.52a7.29,7.29,0,0,1-1.25-2.92,2.61,2.61,0,0,1-.1-.94l-.94-.62a16.9,16.9,0,0,1,.1-2.19c0-.63-.38-1-1.14-1.15a30,30,0,0,1,.83,3.34,2.58,2.58,0,0,1,0,1l.83.62a1.38,1.38,0,0,1-.62,1.36,1.18,1.18,0,0,0-.52,1.46,1.23,1.23,0,0,1,.83.1A2.34,2.34,0,0,0,14.61,124.17Zm.83-30.52a4.76,4.76,0,0,1,1.25-2A4.64,4.64,0,0,0,15,92l-1.57.62v2.82Q14.62,95.32,15.44,93.65Zm-1.77-37.3.21-1.14A5.58,5.58,0,0,1,13.67,56.35Zm.42-2.18-.21,1A6.09,6.09,0,0,1,14.09,54.17Zm4.79,17.5c-.62-2.16-2.26-3.44-4.9-3.86a2.84,2.84,0,0,0,.42,2.29,4.91,4.91,0,0,1,.73,2.09,2.87,2.87,0,0,0,2.08-.11A15.12,15.12,0,0,1,18.88,71.67ZM15.34,25.1v.42a2,2,0,0,0,1.46,2,4.14,4.14,0,0,0,1.25.42,2.46,2.46,0,0,1,1.14.52l.21-.73c0-.42-.28-.7-.83-.83a1,1,0,0,1-1-.63V24.58a2.6,2.6,0,0,0-1.15.21A1.44,1.44,0,0,1,15.34,25.1ZM27.21,87.4c.35-1.39,0-2.23-1-2.5A5.9,5.9,0,0,1,25.76,86a1.42,1.42,0,0,1-.79.57,3.36,3.36,0,0,1-1.51.11c.07-1-.2-1.6-.83-1.88s-1.18-.48-1.25-.62a.44.44,0,0,1-.1-.32v-.52h-.63a2,2,0,0,0,0-2.18,16,16,0,0,1-1.14-2.3l.83-.62-.31-1a4.23,4.23,0,0,1,2.18.1,8.55,8.55,0,0,0,1.67.52V75.63l.83-.32-.31-.93.73-.32a2.48,2.48,0,0,1,1.15-.73,1.63,1.63,0,0,1,.93.11,2,2,0,0,0-1.35-2.09,2.2,2.2,0,0,0-2.4.32.86.86,0,0,0,0,.83l.32.52a1.09,1.09,0,0,1,.1,1.36l-.21.62a.9.9,0,0,1,.52.1l.32.21-.63.32a1.83,1.83,0,0,1-2.5.1,4.61,4.61,0,0,1-1.15-.83,3.37,3.37,0,0,0-1.35-.52.78.78,0,0,0,.52,1.14.31.31,0,0,0,.21.11q.83.41.42,1.56l-.84.62.32,1H18.46a2.29,2.29,0,0,1-.31,1.57l-.31.52c-.14.14-.14.38,0,.73,1.67-.21,2.39.34,2.19,1.66l-.21.52a.41.41,0,0,0,.31-.1l-.1.63a3.52,3.52,0,0,1-2.3.2,1.54,1.54,0,0,0-1.45.32q.51-.11.57.36a3.36,3.36,0,0,1-.05,1,3.78,3.78,0,0,0-.05,1.09c0,.32.22.44.57.37a2.91,2.91,0,0,1,2.19-2.19A4,4,0,0,0,21,86.67a1.61,1.61,0,0,1,.73,1.56c.14,1-.07,1.56-.62,1.77a5.82,5.82,0,0,0-1.56,1,7.58,7.58,0,0,1,2.91,2.5A6.64,6.64,0,0,0,25.65,96a7.44,7.44,0,0,0,.68-2.34A6.77,6.77,0,0,0,26.48,91a1.61,1.61,0,0,0-.83-1.14A4,4,0,0,0,27.21,87.4Zm-7.7,53.22v-1.56c-1.39-.21-2.12.14-2.19,1a4.27,4.27,0,0,1,.94.42A1.41,1.41,0,0,0,19.51,140.62Zm.62-62.49h-.31l-.63-.32Zm1.15,5.2-.84.32-.31.1Zm.1-48.95V35a.41.41,0,0,0,.31-.1H22a3.53,3.53,0,0,1,.93.2,3.06,3.06,0,0,0,.63.53l.31.83.83-.31v.41c0,.49-.1.8-.31.94a1.22,1.22,0,0,0-.42,1c0,.56.56.84,1.67.84a3.12,3.12,0,0,0,1.67-.53,4.25,4.25,0,0,1,2.39-.52,19.4,19.4,0,0,1-4.06-2.18c-.42-.35-.62-.63-.62-.84L24.09,35v-.42a1,1,0,0,0-.83-1.14,2.74,2.74,0,0,1-1.36-.63A2.13,2.13,0,0,0,21.38,34.38Zm2.5,101.87c.14-1.39-.21-2.12-1-2.19v1.56a.53.53,0,0,0,.21.63A.86.86,0,0,0,23.88,136.25Zm0-99.79A4.41,4.41,0,0,1,25,35.31Zm3.65,27.71c1-.28,1.49-.7,1.56-1.25a5.68,5.68,0,0,1-1.25.21H26.69a4,4,0,0,0-2.6.83c.42.07.83.45,1.25,1.14A5,5,0,0,1,27.53,64.17Zm-.32,67.6v-1.56H25.65Q25.34,131.88,27.21,131.77Zm0-6.56v-1h-1v1Zm1.57-54.06c0-1-.35-1.5-1.05-1.57l-.41.84a1.79,1.79,0,0,0-.21.83c0,.35,0,.56.1.63h1.57Zm1.25-27c-.07,0-.18-.07-.32-.21v-.21c0-.28-.2-.42-.62-.42-.77,0-1.15.14-1.15.42,0,.07.33.17,1,.31a9.14,9.14,0,0,0,1.2.21Zm-.32-13.54c-1,0-1.52.38-1.66,1.14h.62a1.45,1.45,0,0,0,.63.11c.69,0,1-.25,1-.73C30.13,30.8,29.92,30.63,29.71,30.63Zm.94,22.6c0-.35-.1-.52-.31-.52h-.11v1.14a1,1,0,0,1-1,.63c-.62.14-.93.42-.93.83,0,1.25,1.38,1.88,4.16,1.88.49,0,.73-.14.73-.42v-.62A1.56,1.56,0,0,0,32,54.58C31.17,54.24,30.72,53.79,30.65,53.23Zm-1.56,37.4c1.25,0,1.87-1,1.87-3.13a3.42,3.42,0,0,0-.52-1.87,10.92,10.92,0,0,0-.62,2.6,3.57,3.57,0,0,1-1,2.29H29A.1.1,0,0,0,29.09,90.63ZM30,77.81c.76.35,1.14.07,1.14-.83s-.38-1.18-1.14-.83Zm3.54-31.14c-1,0-1.6.34-1.67,1h.63a1.76,1.76,0,0,0,.73.1c.62,0,.93-.21.93-.62S34,46.67,33.57,46.67ZM32.94,64.9A3.13,3.13,0,0,0,35.23,64,2.67,2.67,0,0,1,34,63.33a2.23,2.23,0,0,0-1.56-.41v.31a2.32,2.32,0,0,1-.52,1.35A1.44,1.44,0,0,0,32.94,64.9Zm-.1-49.69a1.12,1.12,0,0,0-.42.52c1.11,0,1.67-.21,1.67-.63v-.41h-1A.7.7,0,0,1,32.84,15.21Zm2.39-6V8H34.09V9.17Zm.94,22.71c.49,0,.73-.28.73-.84s-.28-1-.83-1a.67.67,0,0,0-.42.1v1.67A.8.8,0,0,0,36.17,31.88ZM39.82,85a2.37,2.37,0,0,0-.94-.31,1.17,1.17,0,0,0-.73.41v.21a.29.29,0,0,0-.1.21,1.1,1.1,0,0,0,1.25,1.25,1,1,0,0,0,1.14-1.14C40.44,85.42,40.23,85.21,39.82,85Zm5.52,2.29a1.08,1.08,0,0,0-.11.63,2.3,2.3,0,0,0,1.1,1.92,4,4,0,0,0,2.34.79A2.25,2.25,0,0,0,50.34,90,9.88,9.88,0,0,0,45.34,87.29Zm22.29-60v-1H66.48l.32-.94-.73-.21a2.3,2.3,0,0,1-.73-.1,3,3,0,0,1-.57-.26,4.82,4.82,0,0,1-.42-.26,1.09,1.09,0,0,1-.31-.37,2.94,2.94,0,0,1-.21-.36,2.58,2.58,0,0,1-.16-.47,2.48,2.48,0,0,1-.1-.42v-.57l-.11-.41a6.87,6.87,0,0,0-.26-1.41,2,2,0,0,0-.83-.94,3.37,3.37,0,0,0-1.93-.47,1.86,1.86,0,0,0,.21.84,1.73,1.73,0,0,1,.21.52c0,.14-.14.24-.42.31q-.93-.11-.93-.63a.6.6,0,0,1,.1-.41.61.61,0,0,0,.1-.42c0-.14-.17-.21-.52-.21h-.41l.31-.83-.83.31a1.61,1.61,0,0,0-1-1.66A1.59,1.59,0,0,0,56.69,18c0,.7.38,1,1.15,1h.42l-.21.63.21.41v.21a.31.31,0,0,0-.11.21c0,.56.49.83,1.46.83s1.46.32,1.46.94c-.35.14-.52.35-.52.63a1.85,1.85,0,0,1-.63,1.66,3.86,3.86,0,0,1-2,.32,13.23,13.23,0,0,1-2.39-.32,2.38,2.38,0,0,1-.73,1.25,2.13,2.13,0,0,0-.52,1.57.26.26,0,0,0,.1.2v.32A5.19,5.19,0,0,1,56,27.6a6.58,6.58,0,0,1,2.3.84,5.63,5.63,0,0,0,2.81,1.14v-.93a3.64,3.64,0,0,1-.11-1c0-1.66.38-2.5,1.15-2.5a2,2,0,0,1,1.35.73,1.83,1.83,0,0,0,1.36.52.41.41,0,0,0,.31-.1h.31l.32.83.72-.31v.52ZM66.48,12.08a2.61,2.61,0,0,1,1.15.32,3.09,3.09,0,0,0-1.77-2.92l-1.67-.63A10.45,10.45,0,0,1,62.63,8a4.79,4.79,0,0,1-2.81,2.61,27.71,27.71,0,0,0-3.75,1.77,3.31,3.31,0,0,0,1.87.83,2.49,2.49,0,0,1,1.46,1.46A2.19,2.19,0,0,1,61,14a5,5,0,0,1,1.15.1,3.4,3.4,0,0,0,1,.21c.35,0,.56,0,.63-.1l.31-.52A2.74,2.74,0,0,1,66.48,12.08ZM56.8,82.6a2.93,2.93,0,0,0-.42,1.46,1.4,1.4,0,0,0,.63,1A7.08,7.08,0,0,0,57.84,82,2.06,2.06,0,0,0,57,80.1a2.44,2.44,0,0,1,.1.84A4.64,4.64,0,0,1,56.8,82.6Zm1.77-63.75a.72.72,0,0,1-.21.53l-.31.31Zm1.35,14.48V31.77H58.26v1.56Zm.73,45.21a1.82,1.82,0,0,0-.62.84h2.18v-1a.89.89,0,0,1-.62-.2,2.58,2.58,0,0,0-.52-.32C60.93,78.23,60.79,78.47,60.65,78.54Z"/><path class="cls-1" d="M157.32,17c0,1.94,0,3.26-.11,4L157,23.13a21,21,0,0,0,.11,2.29v3q0,8.22-1.25,11a43.89,43.89,0,0,1-12.29,1.46q-5.83,0-10.52-.42-3.66-.32-10.84-.52l-.83-.42v3q0,3,.21,9.07a45.45,45.45,0,0,0,.52,7.71c.76,0,2.12-.06,4.06-.16l4.48-.26c1.81,0,3.16,0,4.06-.11h3.13a59.45,59.45,0,0,1,7.29.32c1.53.27,2.29.8,2.29,1.56a16.08,16.08,0,0,1,.73,5.83c0,1.88,0,3.34-.1,4.38s-.11,2.6-.11,4.69c0,1.38.07,3.4.21,6s.21,4.55.21,5.73a20.94,20.94,0,0,1-.52,5.1,2.19,2.19,0,0,1,.1.83c0,1.25-1,2-2.91,2.29a44.28,44.28,0,0,1-6.88.53c-2.71,0-4.65,0-5.83-.11h-8.23a17.43,17.43,0,0,0-2.4.21V114.9c1.81.14,3.75.2,5.84.2a9.45,9.45,0,0,0,1.66-.1h1.56l10.32-.31q6.35,0,8.33.1c3.61.21,5.63,1.46,6,3.75.14,1.81.21,3.61.21,5.42V144.9a10.57,10.57,0,0,1-.78,4.58,4.23,4.23,0,0,1-3.07,2.08l-19.27.42c-1.05.07-2.61.1-4.69.1h-5.21q-8.66,0-17.71-.31-12.09-.21-17.5-.21a4.11,4.11,0,0,1-2.92-1.35,4,4,0,0,1-1.35-2.81q0-10.53.31-20.84t.32-20.73q0-20.83-.32-42.29t-.31-44.69a7.76,7.76,0,0,1,.1-1.45V16c-.14-1.8-.2-3.09-.2-3.85a32.26,32.26,0,0,1,1.56-8.65,135.46,135.46,0,0,1,20.21-1.25,61,61,0,0,1,13.64,1.46h14q1.67,0,6.46-.21,4.58-.21,6.77-.21,7.71,0,9.9,2.71Q157.32,8.44,157.32,17ZM96,67.29c.56,0,.87-.24.94-.73a.73.73,0,0,1,.83-.62.61.61,0,0,1,.42.1A2.49,2.49,0,0,0,96,64.38,3.08,3.08,0,0,1,95.44,66l-1.14-.31-.52.94a5.68,5.68,0,0,0-1.57-.73c-.55-.14-.83-.59-.83-1.36a1.42,1.42,0,0,1,.1-.73,3.9,3.9,0,0,1-2.39.73,2.68,2.68,0,0,0-2,.32v5a2.62,2.62,0,0,1,2.71-1.46,12.43,12.43,0,0,1,1.87.21,12.19,12.19,0,0,0,1.67.2h.42V67.71l.93.21.73-.73h.31A.29.29,0,0,0,96,67.29ZM88.15,82c.48,0,.73-.17.73-.52s-.31-.87-.94-1.36l-.73,1.78A2.88,2.88,0,0,0,88.15,82Zm4.69,7.71a2.85,2.85,0,0,1,1.77-.42,4.94,4.94,0,0,0-1.36-1.87,2.79,2.79,0,0,1-1.14-2.19,4.21,4.21,0,0,1,.31-1.46l-1.14-.21c-.63,0-.94.18-.94.52a2,2,0,0,0,.73,1.36c.48.48.73.87.73,1.14a8.68,8.68,0,0,1-.94,3,9.68,9.68,0,0,0-1.25,4.07,3.84,3.84,0,0,0,1.14-1.36A6.3,6.3,0,0,1,92.84,89.69Zm-1.77-57v1.67a.64.64,0,0,0,.41.1c.49,0,.73-.31.73-.94s-.24-.94-.73-.94A.57.57,0,0,0,91.07,32.71Zm1.56,24-.63.21h.11a.31.31,0,0,0,.21-.11A.41.41,0,0,0,92.63,56.67Zm.1-37.61a12.2,12.2,0,0,1,.11,1.88,7.92,7.92,0,0,1-.73,3.54,2.33,2.33,0,0,1,1.56-.63c1.32,0,2,.77,2,2.3q0,.11-.21,1.14A2,2,0,0,0,96.8,25.1a17,17,0,0,0-.21-2A16.94,16.94,0,0,1,96.38,21a3,3,0,0,1,1.25-2.71c-.49-.2-1-1.25-1.46-3.12-.56-1.6-1.39-2.4-2.5-2.4-.49,0-.8.63-.94,1.88a7.15,7.15,0,0,0-.1,1.35V17A14.35,14.35,0,0,0,92.73,19.06Zm.94,58.23a.83.83,0,0,0,.94-.94l-.21-.62-.31-.83-.84.31V74.06H92.11v1.15l1.14.21a1.88,1.88,0,0,1-.83.62l.83.21a.61.61,0,0,0-.1.42C93.15,77.08,93.32,77.29,93.67,77.29Zm.42-2.39-.73.52A2.76,2.76,0,0,1,94.09,74.9Zm.62-7a6.49,6.49,0,0,1-.21-1Zm1.36-32.09A3,3,0,0,1,96,34.9l.94-.63a8.61,8.61,0,0,1,.21-1.56,8.62,8.62,0,0,1,1.14-2.29c-.2-.35-.41-.52-.62-.52a3.78,3.78,0,0,0-1.46.36c-.56.24-.83.47-.83.68,0,.62.21,1,.62,1s.63.49.63,1.25l-.84.62c0,.14,0,.21.11.21v.32a10.81,10.81,0,0,1-.21,1.25,1.91,1.91,0,0,1-.16.62c-.1.28-.2.61-.31,1s-.19.71-.26,1c.76,0,1.15-.49,1.15-1.46Zm6.56-29.58a7.5,7.5,0,0,1-6,4.38c0,.41.38.76,1.14,1s1,.73,1,1.14a4.37,4.37,0,0,1,2.39-2.6,17.93,17.93,0,0,0,3.23-1.77c2.08.55,3.13,1.8,3.13,3.75,0,.41-.28.76-.84,1s-.94.62-.94,1L106,15a.84.84,0,0,0,.52.1,2.75,2.75,0,0,0,.84-.1h.83a1.75,1.75,0,0,1,.94.16q.21.15.21,1a3.66,3.66,0,0,0,2.18-3.34,3.79,3.79,0,0,0-1.77-2.5A3.06,3.06,0,0,1,108.15,8a2.9,2.9,0,0,1,.63-1.77,4.29,4.29,0,0,0-1.15-.1,13.93,13.93,0,0,0-2.08.2,17.89,17.89,0,0,1-1.88.21A1.42,1.42,0,0,1,102.63,6.25Zm-6,52.4v2.81l1.56.62a4.71,4.71,0,0,0,1.67.32c-.42-.21-.84-.91-1.25-2.09C97.94,59.27,97.28,58.72,96.59,58.65Zm1,25.31a4.27,4.27,0,0,0-.52,2.29q4-.63,4.89-3.85a4.43,4.43,0,0,1-1.35-.42,6.1,6.1,0,0,0-1.46-.21,2.57,2.57,0,0,0-.94.11A4.59,4.59,0,0,1,97.63,84Zm4.06,43.12c.56,0,.84-.24.84-.73l-.21-.73a10.65,10.65,0,0,1-2.5.84,1.92,1.92,0,0,0-1.36,2.08V129a2.26,2.26,0,0,1,1,.21,1.67,1.67,0,0,0,1.15.31v-1.67C100.72,127.47,101.07,127.22,101.69,127.08Zm-.31-14.27h-1v1h1Zm1.25-99.37a.4.4,0,0,1-.31-.11h-.21a1.79,1.79,0,0,0-.83.21,2.37,2.37,0,0,1-.84.42,1.31,1.31,0,0,0,1.46,1.14,1.79,1.79,0,0,0,.73-.1ZM102,79.69a3.27,3.27,0,0,0,2-1,2.4,2.4,0,0,1,1.67-.84,2.48,2.48,0,0,1,1.35.63l.63.31-.31.21a.84.84,0,0,1-.52.1l.2.63a1.43,1.43,0,0,1,.11.62,4.14,4.14,0,0,1-.21.73l-.31.52a.6.6,0,0,0-.11.42c0,.62.49.94,1.46.94,1.6,0,2.4-.77,2.4-2.29a2,2,0,0,1-.73.1c-.63,0-1-.14-1-.42a1.39,1.39,0,0,0-1-.62l.31-.94-.84-.31V76.25a5,5,0,0,0-1.35.42,3.47,3.47,0,0,1-1.56.31,2.88,2.88,0,0,1-.94-.1l.21.83c0,.35-.25.59-.73.73s-.73.41-.73.83a.29.29,0,0,0,.1.21Zm2.4-9-.83-.31-.32-.11Zm4.17,75.1a27.77,27.77,0,0,1,4.06-2.08,4.23,4.23,0,0,1-2.4-.52,3.08,3.08,0,0,0-1.66-.52c-1.11,0-1.67.28-1.67.83s.14.87.42.94a1.44,1.44,0,0,1,.31,1v.42l-.83-.32-.32.84-.62.41a1.88,1.88,0,0,1-.94.32.42.42,0,0,1-.31-.11h-.31v.63a2.12,2.12,0,0,0,.52,1.56,2.76,2.76,0,0,1,1.35-.73,1,1,0,0,0,.83-1v-.42l.94-.31C107.94,146.56,108.15,146.25,108.57,145.83ZM105.86,18.75a1.47,1.47,0,0,0,.1.63V20c.7-.07,1-.69,1-1.87v-.32c-.14,0-.2,0-.2-.1h-.21C106.1,17.71,105.86,18.06,105.86,18.75Zm2.08,128a4.25,4.25,0,0,1-1.14-1.15Zm1.88-55.83H111a5.59,5.59,0,0,1,1.25.21c-.07-.63-.59-1.08-1.56-1.36a5.38,5.38,0,0,1-2.19-.83c-.41.69-.83,1.08-1.25,1.14A4,4,0,0,0,109.82,90.94Zm.31,13.23c0,.14,0,.2.1.2v.32h1.57v-1.57C110.68,103.12,110.13,103.47,110.13,104.17Zm1.77-21.25v-.73h-1.56a1.06,1.06,0,0,0-.11.62,1.86,1.86,0,0,0,.21.84l.42.83C111.55,84.41,111.9,83.89,111.9,82.92Zm.94,55.1q.21-.11.21-.21a9.14,9.14,0,0,0-1.2.21c-.66.14-1,.25-1,.31q0,.42,1.14.42a.56.56,0,0,0,.63-.63A.34.34,0,0,1,112.84,138Zm-1-15.83a2,2,0,0,1-.63.1c.14.77.69,1.15,1.67,1.15.34,0,.53,0,.57-.11a1.15,1.15,0,0,0,0-.41c0-.49-.35-.73-1-.73Zm1.77,6.66c.06-.48.52-1,1.35-1.45a2.18,2.18,0,0,0,1.15-1.88c0-.42-.25-.62-.73-.62q-4.17,0-4.17,1.87c0,.42.31.7.94.83s1,.35,1,.63v1.14h.1C113.46,129.37,113.57,129.2,113.57,128.85Zm-1.46-65.41a.29.29,0,0,1-.21.1,3.54,3.54,0,0,1,1,2.29,11,11,0,0,0,.63,2.61,3.54,3.54,0,0,0,.52-1.88c0-2.08-.63-3.12-1.88-3.12Zm1,14.48a.61.61,0,0,0,.42.1c.48,0,.73-.31.73-.94s-.25-.93-.73-.93a.61.61,0,0,0-.42.1Zm3.33,57.5c.42,0,.63-.18.63-.52s-.31-.63-.94-.63h-.73a1.91,1.91,0,0,1-.62.1C114.88,135.07,115.44,135.42,116.48,135.42Zm.63-44.69a2.15,2.15,0,0,1,1.25-.63,3.14,3.14,0,0,0-2.29-.93,1.41,1.41,0,0,0-1,.31,2.45,2.45,0,0,1,.52,1.35v.32A2.21,2.21,0,0,0,117.11,90.73ZM128.88,10a2.58,2.58,0,0,0,.62-1.15c-.69-.13-1.07-.2-1.14-.2a1.71,1.71,0,0,0-1.56.62,6.71,6.71,0,0,1-1,1.25,1.74,1.74,0,0,1-.72-.1h-.84c-.48,0-.73.21-.73.62a.8.8,0,0,0,.11.52l-.84-.21.21.73-1.56.32a.81.81,0,0,0-.73.93.29.29,0,0,0,.1.21v.21l-.83-.21.21.73a2.27,2.27,0,0,0-1.25-.52c-.49,0-.73.31-.73.94,0,1.39.38,2.08,1.15,2.08.34,0,.62-.45.83-1.35l.94.31-.32-.83A4.84,4.84,0,0,0,122,15c1.25,0,1.88-.42,1.88-1.25a5.32,5.32,0,0,0-.31-1.67l.73.32-.21-.84a1.16,1.16,0,0,1,.94-.62,2.26,2.26,0,0,1,1.45.62,2.37,2.37,0,0,0,1.57.63.59.59,0,0,0,.41-.11c-.07-.07-.1-.27-.1-.62A2,2,0,0,1,128.88,10Zm-9.69,114.06c.56,0,.84-.34.84-1,0-.55-.25-.83-.73-.83-.28,0-.46,0-.52.1V124C118.84,124,119,124.06,119.19,124.06Zm5.21,6.77a4,4,0,0,0-2.34.78,2.33,2.33,0,0,0-1.1,1.93,1.08,1.08,0,0,0,.11.63,9.88,9.88,0,0,0,5-2.71A2.26,2.26,0,0,0,124.4,130.83Zm-2-61.25a1.11,1.11,0,0,0-1.25,1.25.1.1,0,0,0,.11.11v.31a1.13,1.13,0,0,0,.72.42,2.38,2.38,0,0,0,.94-.32c.42-.2.63-.41.63-.62A1,1,0,0,0,122.42,69.58Zm.31,71.57a1.17,1.17,0,0,1,.52-.42q0-.63-.72-.63c-.7,0-1,.25-1,.73s.18.63.52.63A1,1,0,0,0,122.73,141.15Zm10-4.8a1.45,1.45,0,0,0-.62,1.05,2.87,2.87,0,0,0,.42,1.45,5,5,0,0,1,.31,1.67,2.06,2.06,0,0,1-.11.83,2,2,0,0,0,.84-1.87A7,7,0,0,0,132.73,136.35Zm-.41-55.1v2.19l.73-.42a8.32,8.32,0,0,1,.93-.21l-.52-1c-.14-.42-.35-.62-.62-.62S132.38,81.18,132.32,81.25Zm5.21,45.21a.31.31,0,0,0-.11.21,1.94,1.94,0,0,0,.52,1.45,3.68,3.68,0,0,1,.73,1.36,13,13,0,0,1,2.4-.31,3.89,3.89,0,0,1,2,.31,1.89,1.89,0,0,1,.62,1.67c0,.27.17.48.52.62,0,.63-.48.94-1.46.94s-1.45.28-1.45.83c0,.07,0,.11.1.11V134l-.21.41.21.63H141c-.76,0-1.14.35-1.14,1a1.59,1.59,0,0,0,.52,1.15,1.63,1.63,0,0,0,1-1.67l.83.31-.31-.83h.42c.34,0,.52-.07.52-.21a.6.6,0,0,0-.11-.42c-.07-.06-.1-.2-.1-.41s.31-.49.94-.63c.27.07.41.18.41.32a2,2,0,0,1-.2.52,1.68,1.68,0,0,0-.21.83,3.36,3.36,0,0,0,1.92-.47,2,2,0,0,0,.84-1,9.16,9.16,0,0,0,.26-1.46c.21-1.52.62-2.43,1.25-2.71a3.53,3.53,0,0,1,1.35-.41l.73-.21-.31-.94h1.14v-1h-1.14v.52l-.73-.31-.31.83a.44.44,0,0,1-.32-.1h-.31a1.79,1.79,0,0,0-1.35.52,1.57,1.57,0,0,1-1.25.62,1.05,1.05,0,0,1-1-.73,8.86,8.86,0,0,1-.21-1.66,3.6,3.6,0,0,1,.1-1v-.94a7.54,7.54,0,0,0-2.81,1,4.74,4.74,0,0,1-2.29.94,5.33,5.33,0,0,1-1.56-.31Zm12.7,17.08a3.11,3.11,0,0,0,.52-1.87,2.65,2.65,0,0,1-1.14.31,2.76,2.76,0,0,1-2.4-1.56l-.31-.52a1.06,1.06,0,0,0-.62-.11,3.64,3.64,0,0,0-1.05.11,5.35,5.35,0,0,1-1.14.2,2.15,2.15,0,0,1-1.56-.73c-.35.84-.84,1.29-1.46,1.36a4.75,4.75,0,0,0-1.88.94,35.54,35.54,0,0,0,3.75,1.66,4.7,4.7,0,0,1,2.81,2.71,12.11,12.11,0,0,1,1.57-.83A5.93,5.93,0,0,0,150.23,143.54ZM141.17,21.35h1.15c0-.55-.18-.9-.52-1l.2-1-.83-.62v-1l.31-.83a.61.61,0,0,0-.1-.42,5.1,5.1,0,0,0-.73-.41c0,.07,0,.1.1.1v.21a1.21,1.21,0,0,1-.62,1q-.63.42-.63.84c0,.13.21.31.63.52l-.31.93.83.73c.07.07.21.25.42.52A.92.92,0,0,1,141.17,21.35Zm.31,113.34a.7.7,0,0,1,.21.52l-.52-.84ZM145.34,77h-2.19c.14.42.35.66.63.73a2.5,2.5,0,0,1,.41.83,2.4,2.4,0,0,0,.52-.31.86.86,0,0,1,.63-.21Z"/><path class="cls-1" d="M255,108.23q.21,2.08.21,5.31,0,12.3-8.33,23.54-8.55,11.46-19.79,14A44.3,44.3,0,0,1,210,154.69q-17.49,0-28.64-8.65-9.48-7.39-14.17-23.85a7.53,7.53,0,0,1-.42-3,14.9,14.9,0,0,0-.31-3.13q0-4.16-.1-5.94c-.07-1.18-.11-2.63-.11-4.37a8.78,8.78,0,0,1,.79-4.43c.52-.8,1.61-1.2,3.28-1.2s3,0,3.95-.1h16.25c1.53,0,2.64,0,3.34-.1H197a48.73,48.73,0,0,1,5.42.31c1.18,1,1.77,2.85,1.77,5.62q0,11.46,6.35,11.46a5,5,0,0,0,3.65-1.72,9.45,9.45,0,0,0,2.29-4.95l.11-.62a12.18,12.18,0,0,0-3-6.77A68.71,68.71,0,0,0,204.71,95q-1.25-.93-4.37-3.65-3.75-3.12-8-6.45a38,38,0,0,0-4.48-3A51,51,0,0,1,174,68.54q-7.92-8.75-7.91-29.37a35.5,35.5,0,0,1,2.5-12.92A42.15,42.15,0,0,1,174.92,15q8.85-10.3,17.4-12.19Q199.19,0,212.42,0q14,0,24,7.81A43.8,43.8,0,0,1,249.71,26l.63,2.29c.34,1.81.59,3,.73,3.65q1,5,1.14,6.15.31,4,.42,5.52c.21,2.08.31,3.92.31,5.52a6.57,6.57,0,0,1-.42,3.07c-.27.38-1,.64-2.18.78a54.12,54.12,0,0,1-9.59.63c-1.39.07-3.5.1-6.35.1q-11.25,0-15.31-.31a6.43,6.43,0,0,1-3.39-.73,2.52,2.52,0,0,1-.78-2.08,13.78,13.78,0,0,1,.1-1.88v-2q0-10.31-5.41-10.31a4.22,4.22,0,0,0-3.49,1.87,9.1,9.1,0,0,0-1.41,5.52,11.41,11.41,0,0,0,2,6q2.3,3.12,8.75,7a139.13,139.13,0,0,1,15.73,11.45,78.39,78.39,0,0,1,13.75,14.38A52.18,52.18,0,0,1,254,102.19l.21,1.56A16,16,0,0,1,255,108.23ZM171.79,34.79l-.52,1,1,.52.41-1Zm7.4,19.9c-.14-.56.17-1.25.94-2.09a4.68,4.68,0,0,0-4.06-1.87,18.15,18.15,0,0,0-2.3.1,16.82,16.82,0,0,1-2.18.21l1.14,3.34.52,1.87.21,1.15.83.1c-.62.56-.52,1.25.32,2.08s1.42.73,1.77-.31a7.35,7.35,0,0,1-1.77-2,1.06,1.06,0,0,1-.11-.62l-.93-.11c.69-1.32,1.45-1.87,2.29-1.66a5.13,5.13,0,0,1,1.14.73l1.46,1.14A3.58,3.58,0,0,0,179.19,54.69Zm-3.75,68.64a3.39,3.39,0,0,0,2.71-2q-4.38-.72-6.36,1.77A5.34,5.34,0,0,0,175.44,123.33ZM171.9,44.9a1.67,1.67,0,0,1,1.56,1.77v1.14c0,.21.21.52.63.94a10.65,10.65,0,0,1,3.75-3.23,5.22,5.22,0,0,1,5.83.94c.56-.21.9-.83,1-1.88a4.05,4.05,0,0,1,1-2.81c-1.32-.83-2.32-.69-3,.42s-1.7,1.18-3,.21a13.16,13.16,0,0,1,1.25-2c.35-.28.14-.8-.62-1.57V38l-.73-.21a1.69,1.69,0,0,0-.42-1.46c-.28.28-.83.35-1.67.21a2.26,2.26,0,0,0-.73-.1c-.34,0-.55.21-.62.62l.42.52h.2l.53-.1a4,4,0,0,1,1.56.52l-.73.73.62.63c-.14.55-.31.86-.52.93l.32.73-1.15-.73c-1-.48-1.67-.38-1.88.32.21.13.59.34,1.15.62.83.49,1.29.94,1.35,1.35a2.24,2.24,0,0,1-.52,1.15c-.34,1-1.28,1.18-2.81.63S172.25,44,171.9,44.9Zm.42-16.15c-.28,1.53-.11,2.54.52,3a2.39,2.39,0,0,0,2.5-.62,4.2,4.2,0,0,0,.73-.73,1.83,1.83,0,0,1,.83-.63,3,3,0,0,1-.94-1.87L175.65,26a6.28,6.28,0,0,0-.21-1l-.21.21a1.62,1.62,0,0,1-.31.42A20.48,20.48,0,0,1,172.32,28.75Zm2.6,79.37q-1.14-1.35-1.77-.72a5.26,5.26,0,0,1,1.72,3,8.77,8.77,0,0,1-.68,3.75l2.08-.11c-.07-.34-.12-.66-.15-.94a2.89,2.89,0,0,1,0-.83,6.21,6.21,0,0,1,.1-.62,3.84,3.84,0,0,1,.26-.63c.14-.27.23-.45.26-.52s.16-.26.37-.57a1.77,1.77,0,0,0,.31-.58C176.59,109.65,175.75,109.24,174.92,108.12Zm1.25-84.37-.42.83.32.21a.72.72,0,0,0,.62-.1,2.17,2.17,0,0,0,.21-1.25l-.21-.84a1.83,1.83,0,0,1,.94.53l-.21-.73a28.21,28.21,0,0,0,3-.42,4.88,4.88,0,0,1,2.81.42q.21,7.5,4,8.43a7.56,7.56,0,0,0-.83-3.95l-.84-1.46a8.71,8.71,0,0,1-.83-1.46,1.48,1.48,0,0,1,1-1.67,1.17,1.17,0,0,0,.94-1.35l.73-.31a.44.44,0,0,1-.1-.32.36.36,0,0,1,.41-.41c.56.2.9,0,1-.52s.28-.63.84-.42a3.51,3.51,0,0,1-1.46-1.56,2,2,0,0,0-2.08-.63,1,1,0,0,0,.2.42,1,1,0,0,1,.21.52l.31,1,.42,1.15-.83.2-.73.21h-1.46v-2.6a4.47,4.47,0,0,0-3.33,1.67,3.65,3.65,0,0,1-4,.93c-.14.56,0,.94.31,1.15a1,1,0,0,1,.21.94l-.73.2a.29.29,0,0,1-.1.21.31.31,0,0,0-.11.21Zm.42,33.65,1-.73A5.46,5.46,0,0,0,176.59,57.4Zm.83-17.09c.14.14.21.25.21.32Zm2.4,98.75a.94.94,0,0,0,1-.21,1.56,1.56,0,0,0,.41-1.14,1.42,1.42,0,0,0-.41-1,.94.94,0,0,0-1-.21,3.24,3.24,0,0,1-.21,1.56.6.6,0,0,0-.11.42A2.26,2.26,0,0,0,179.82,139.06Zm1.87-81c.42.63,1.29.87,2.6.73a6.28,6.28,0,0,0,1.36-.1,2.64,2.64,0,0,1,.83-.11,2.26,2.26,0,0,0,0,1.67,3.57,3.57,0,0,1,2.61.31,3,3,0,0,0,2.39.31,5.54,5.54,0,0,0,.52-1.35,4.11,4.11,0,0,1,1.36-2.29,4.88,4.88,0,0,1,1.87-.73,9.21,9.21,0,0,0,1.25,1.46,6.23,6.23,0,0,1,2,3.12,3.28,3.28,0,0,1-.31,2.09,3.29,3.29,0,0,1,2.5,1.25,8.23,8.23,0,0,1-.11-3.86,5,5,0,0,0-.41-3.44,3.42,3.42,0,0,1-1.25,1.25.63.63,0,0,1-.26.16,1.3,1.3,0,0,0-.31.16.53.53,0,0,1-.27.1c-.2.14-.31.07-.31-.21a9.54,9.54,0,0,1-.52-1.56,2.39,2.39,0,0,1-.21-1.35l-.21-1.46a3.41,3.41,0,0,0-.62-1.46,2,2,0,0,0,1.15-.63,3.35,3.35,0,0,1,.62-.73,1.19,1.19,0,0,0-.94-1.14,2.12,2.12,0,0,1-1.35-.83l-.21-.94-.62.62a3.89,3.89,0,0,1,0-2.81,2.94,2.94,0,0,0-.32-2.92,5.62,5.62,0,0,0-3.43,3.44,2,2,0,0,1,1.77.94,4.58,4.58,0,0,0,1.45,1.56v.83l.73-.52c.56,1.6.42,2.82-.41,3.65a7.11,7.11,0,0,0-3.23,2.71,8.14,8.14,0,0,1-3.54,2.81l-.52-.52-.42-.42a4.07,4.07,0,0,1-.21-3.43c.35-1.12.24-1.91-.31-2.4a1.42,1.42,0,0,0-1.25,1.77c0,1.11-.25,1.77-.73,2a8,8,0,0,1-1.56.94A1.47,1.47,0,0,0,181.69,58Zm5.1,69.38a2,2,0,0,1,2.09-1.15,3.15,3.15,0,0,0-.84-1.88,2.37,2.37,0,0,1-.62-2,2.21,2.21,0,0,0,1.09-.21,1.39,1.39,0,0,0,.58-.78,3,3,0,0,0,.2-1v-1.88a3.56,3.56,0,0,1-3-1.25c-.66-.83-.51-1.77.46-2.81-1.59.14-2.63,0-3.12-.52l.1-.52-.2-.52c-.07-.56-.49-.84-1.25-.84-.21.14-.32.25-.32.32s.21.31.63.52l-.31.52.41.52a5.56,5.56,0,0,0,1.25,3.33,10,10,0,0,0,1.15,1.67,5.06,5.06,0,0,1,.73,1.87.88.88,0,0,1-.32.84,3.22,3.22,0,0,0-.62,1.66,3,3,0,0,0,.31.73c.49,1,.35,1.81-.41,2.29-.35.35-.28,1,.2,2A1.43,1.43,0,0,0,186.79,127.4ZM183,43.13a1,1,0,0,1-.62.52l.62-.73ZM232.42,92.6c-.35-.27-.38-.79-.1-1.56.27-.55.17-.94-.32-1.14q-1,2-3.75.93a10.25,10.25,0,0,1-2.5-1.25c-.34-.2-.81-.47-1.4-.78a7.28,7.28,0,0,1-1-.57A5,5,0,0,1,219,90.1a6,6,0,0,1-4.69-2.5,2.33,2.33,0,0,0-.72,1.67,2.69,2.69,0,0,0-.11.83A4.06,4.06,0,0,1,213,91l-1-.21-.93.11,2.29.41,1.87.94-.52.84h.73a1.8,1.8,0,0,1-.47,2,1.9,1.9,0,0,1-1.82.32,2.09,2.09,0,0,1-1.41-1.15c-.24-.55-.05-1.25.58-2.08l.31-.31-.84.1a2.73,2.73,0,0,1-2.6-1,2.56,2.56,0,0,1-.52-2.19,3.52,3.52,0,0,0-.73-2.29l.63-.73-.42-.83a8.44,8.44,0,0,1,.62-2.3q-3.54-2.59-.93-6.14c-.07-.07-.39-.31-.94-.73a8.78,8.78,0,0,1-2.5-2.08,4.6,4.6,0,0,1-.63-1.57,2.67,2.67,0,0,0-.26.37c-.1.17-.19.31-.26.41a2.24,2.24,0,0,1-.31.37l-.31.31a3.46,3.46,0,0,1-.31.26A.61.61,0,0,1,202,74h-.41a1,1,0,0,1-.47-.11,3.68,3.68,0,0,1-.53-.31c-.41-.21-.62-.38-.62-.52s0-.21.1-.42a.88.88,0,0,0,0-1.14l.73-.73c-.07-.07-.24-.1-.52-.1a3.4,3.4,0,0,1-.83-.21l.83-.73.63-.94-.94-.52-.63.94-.52-.63.52,1.67c-.55-.7-1-1.08-1.25-1.15a7.75,7.75,0,0,1-2.91-1.66,9,9,0,0,0-3.54-1.46l.62-.52-.52-.63c.56-1.39.28-2.36-.83-2.91-.56.55-.73,1.07-.52,1.56s.27.55.41.62l.42.63-.52.83.94.42c-.35.55-.66.83-.94.83l-1.15-.1a1.32,1.32,0,0,0-1.09.21,2.63,2.63,0,0,0-.57,1.45l-.63-.62c0,.42-.14.55-.42.42h-.31c-.14,0-.21.1-.21.31a.29.29,0,0,1-.31,0,.88.88,0,0,1-.42-.26,3.92,3.92,0,0,0-1.14-.42q-1.25,1.47,1.56,2.71l.83-1.46.53.73.72-.62a2.32,2.32,0,0,0,2.19.83h1a1.79,1.79,0,0,1,1.15.42L197,75.31a15.44,15.44,0,0,1,1.51-1.4,4.36,4.36,0,0,1,1.83,0q1.24.93.52,4.58-.63,3.43,1.35,3.54a1.47,1.47,0,0,0,.42-1.77,1.42,1.42,0,0,1,.21-1.77,7.91,7.91,0,0,1,2.91,3A22.42,22.42,0,0,0,207.42,85l-.52.52.42.63a3.27,3.27,0,0,0-.11,1.35,6.87,6.87,0,0,1,0,2.5A3.12,3.12,0,0,1,206,91,8.48,8.48,0,0,0,210,94c.07.69,1.71,1.87,4.9,3.54a16,16,0,0,0,1.67.83,9.62,9.62,0,0,1,1.56.84c.28.14.54.27.78.41l.57.32.21.1a11.56,11.56,0,0,1,5.63-.63c.48.28.52,1,.1,2.19s-.24,1.81.73,2.09c.28.2.62-.11,1-.94a1.14,1.14,0,0,0,.21-.42,4,4,0,0,1,.21-.52,1.51,1.51,0,0,1,.52-.73A4.65,4.65,0,0,0,227,99.58c-.55-.41-.73-.86-.52-1.35a7.45,7.45,0,0,1,2.81-3.65l1.57-.93A15.68,15.68,0,0,0,232.42,92.6ZM186.59,20.21l.31.1A.76.76,0,0,1,186.59,20.21Zm3.23,47.29Q193.26,69,188.67,69a.29.29,0,0,0,.1-.21.82.82,0,0,0,.11-.31.7.7,0,0,1,.21-.52Zm1.56,74.37c.07-1.66-.66-2.5-2.19-2.5C189.54,140.83,190.27,141.67,191.38,141.87ZM190.75,54a1.54,1.54,0,0,0-.93.1c.48.7,1.14.7,2,0A3.69,3.69,0,0,1,190.75,54ZM192.42,113c.14-.69,0-1.08-.52-1.15a.72.72,0,0,1-.21.53l-.42.41a1,1,0,0,0,.47.52.44.44,0,0,0,.42,0A.74.74,0,0,0,192.42,113Zm3.75-32.5c.35-.83.31-1.39-.1-1.67a2,2,0,0,1-.84-1.25,1,1,0,0,1-.73.32c-.55.21-.9.34-1,.41a2.86,2.86,0,0,1,1.25,1.15A1.69,1.69,0,0,0,196.17,80.52Zm1.46-10.73c.14.56,0,.87-.42.94a3.35,3.35,0,0,0,.63,1c-.42.7-.94.42-1.57-.83a1.32,1.32,0,0,1-.41-.94c-.07-.14,0-.17.21-.1a3.22,3.22,0,0,1,.62.52.7.7,0,0,0,.52.21ZM197,35.73a15.12,15.12,0,0,1-.41,1.67c.55-.14.9,0,1,.41.62-.07.94-.66.94-1.77V34.69a5.1,5.1,0,0,1,0-1.46c-.91.28-1.39.73-1.46,1.35A4.13,4.13,0,0,0,197,35.73Zm.11,85.73c.55,0,.76-.38.62-1.15s-.48-.83-1-.41v.93Q197.11,120.83,197.11,121.46Zm1.14-109.17c-.55.21-.69.77-.41,1.67s.76,1.32,1.25,1a1.78,1.78,0,0,0-.21-1.67l-.42-.41A.86.86,0,0,1,198.25,12.29Zm7.5,130.52v-1c0-.69-.38-.9-1.14-.62,0,.48-.63.9-1.88,1.25s-2,.76-2,1.45a1.43,1.43,0,0,0,1,.63,10.14,10.14,0,0,0,1.25-.21,4.34,4.34,0,0,1,2.71-.42A2.57,2.57,0,0,1,205.75,142.81Zm-1.66-54.06a2.47,2.47,0,0,0,0-2.19,4.29,4.29,0,0,1-.84-2,4.88,4.88,0,0,0-.83.42,3.38,3.38,0,0,0-.52.42,1.29,1.29,0,0,0-.31.62c-.07.28-.13.51-.16.68s-.09.45-.16.83a5.18,5.18,0,0,0-.1.89,1.47,1.47,0,0,0,1.46.21A2.11,2.11,0,0,1,204.09,88.75Zm-1.46,38.44a11.06,11.06,0,0,0-1.25,4.58c.48.42,1,.31,1.56-.31.76-.9,1.32-1.39,1.67-1.46-.56-.63-.56-2,0-4.06.41-1.81.24-2.82-.52-3A12.32,12.32,0,0,1,202.63,127.19Zm.1-115.73c-.14.35-.48.45-1,.31.07.7.45.87,1.15.52a1,1,0,0,0,.41-1.56A2.17,2.17,0,0,0,202.73,11.46Zm1.67,7.6a1.74,1.74,0,0,1-1.56.63,5.81,5.81,0,0,0,.73,2.19,3.76,3.76,0,0,1,.2,2.5c2.3-2.09,3-4,2.19-5.84C205.13,18.54,204.61,18.72,204.4,19.06Zm.21,54.69c0-.07,0-.1-.11-.1Zm3.64,60.52c.42-.62.28-1-.41-1a1.85,1.85,0,0,1-.52.83,1.58,1.58,0,0,0-.53.84A1.33,1.33,0,0,0,208.25,134.27ZM206.9,85.52a8.76,8.76,0,0,1,.94.21ZM208,72.6l-.52,1.05.94.52L209,73ZM214.71,78c-1.8-.62-3.16-.21-4.06,1.25q1.46,2,4.79,1.56T218.88,78a2.43,2.43,0,0,1-2,.42Zm-3.85,7.61a.66.66,0,0,1,.31.72.57.57,0,0,0,.1.84c.7-.07,1-.49.84-1.25a.66.66,0,0,0-.47-.52A.86.86,0,0,0,210.86,85.63Zm4.58-59.69q-3.54,1-4.37,2.39a11.36,11.36,0,0,0,2.39-.52,11.27,11.27,0,0,1,3.75-.93,5.21,5.21,0,0,1,2.08.83q.94-1.46,0-4.38C219,24.38,217.66,25.24,215.44,25.94ZM214,126.56V125h-1.46c-.34.56-.2.9.42,1l.63.21Zm.52-106.14c-.9.27-1.11.9-.62,1.87a2.77,2.77,0,0,0,1-.62,2.45,2.45,0,0,1,1.15-.52C215.93,20.38,215.41,20.14,214.5,20.42Zm2.4,124.06c.21.07.45,0,.73-.31a.46.46,0,0,1-.52-.52c0-.42-.14-.66-.42-.73l-.21-.21a.6.6,0,0,0-.31.52A1.22,1.22,0,0,0,216.9,144.48Zm9.69-60.83a4.64,4.64,0,0,0-5.11-1.36,10.2,10.2,0,0,0-2.6,1.15l-2.4,1.46a.94.94,0,0,0,1,.93,1.79,1.79,0,0,0,.73.11,2.37,2.37,0,0,1,.94.52,6.81,6.81,0,0,1,.73-2.19c.42-.9,1-1.21,1.77-.94a1.87,1.87,0,0,1,1,1.25c0,.7.42,1.15,1.25,1.36a1.64,1.64,0,0,1,1.25-.94A1.9,1.9,0,0,0,226.59,83.65Zm-7.19,10.1A2.42,2.42,0,0,1,220.7,95a1.21,1.21,0,0,1-.26,1.46,3.87,3.87,0,0,1-2.81.21c-1.11-.28-1.32-.59-.63-.94l1.15-.52L216.69,95C216.76,93.4,217.66,93,219.4,93.75Zm1-73.23c0-.62-.36-.95-1.09-1a2.08,2.08,0,0,0-1.62.47c.14.76.52,1.15,1.15,1.15A1.74,1.74,0,0,0,220.44,20.52Zm-1.35,118.54q6.34-.41,8.85-4.69a1,1,0,0,1-1-.31,1.44,1.44,0,0,0-1-.31,1.9,1.9,0,0,1-.63,1.56,2.26,2.26,0,0,1-1.25.58c-.41,0-1.07.05-2,.05a10.58,10.58,0,0,0-1.82.26A2.37,2.37,0,0,0,219,137C218.65,137.48,218.67,138.16,219.09,139.06Zm3.54-126.25a3,3,0,0,0-2.71,3.34h1.77a1.67,1.67,0,0,1,.31-1.88A1.71,1.71,0,0,0,222.63,12.81Zm4.16,103.54a2.59,2.59,0,0,1-.62-1.45,5,5,0,0,1,.94-2.61,2.52,2.52,0,0,0,.52-1.14,8.31,8.31,0,0,0-5.11,3.12,5.26,5.26,0,0,1,2.09,1.15A3,3,0,0,0,226.79,116.35Zm-1.25-26a2.6,2.6,0,0,1,1.25,1.3,1.21,1.21,0,0,1-.31,1.41,2.11,2.11,0,0,1-3.23-.62l.52-.52-.93-.32a1.54,1.54,0,0,1,1-1.46A1.93,1.93,0,0,1,225.54,90.31ZM224.29,31a2,2,0,0,0-.93,1.93,2.8,2.8,0,0,0,.93,1.93h.53l.31.83a5.12,5.12,0,0,1,2.19.73l2,1.25a2.19,2.19,0,0,1,.32-1.15q.4-.31.21-1.14a1.53,1.53,0,0,0-.94-.32,1.76,1.76,0,0,0-.73.11,6.31,6.31,0,0,1-2.08.21l.2-.73-.83-.31a1.73,1.73,0,0,0-.31-1.78,1.86,1.86,0,0,1-.84-1.56l.84-.62-.31-1a1.17,1.17,0,0,0,.62-.94c0-.63-.28-.66-.83-.11a1.45,1.45,0,0,0-.32,1.05l-.2.83Zm-.2-.83a.88.88,0,0,1,.41.1Zm.41.1.32.11h-.11A.31.31,0,0,0,224.5,30.31Zm.63,5.42a6,6,0,0,1,1.14-1Zm.94-13v1.77h1.56c.14-.56.1-.87-.11-.94s-.38-.35-.52-.83Zm3.22,9.37-1.56.52c.07,1.12.7,1.39,1.88.84,1-.35,1.49-1,1.35-1.88A7.36,7.36,0,0,0,229.29,32.08ZM231,15.94l-1.67-.31a2,2,0,0,0,.11.93l.83,1.36a6.09,6.09,0,0,1,.21,1,.64.64,0,0,0,.73-.21,2.36,2.36,0,0,0,.31-.83c0-.77.18-1.15.52-1.15A1.31,1.31,0,0,0,231,15.94Zm1,12.39A3.1,3.1,0,0,0,229.29,31,4.34,4.34,0,0,0,232,28.33Zm.63-2.81a2.11,2.11,0,0,0,.36-2c-.24-.66-.92-.92-2-.78a1.28,1.28,0,0,1-.21,1.56l-.31.52c-.14.14-.14.38,0,.73Zm.73,14.17c-.14-.21-.59-.31-1.36-.31a.64.64,0,0,0,.21.83,1.69,1.69,0,0,0,1,.31c1,0,1.32-.38,1-1.14C233.81,39.79,233.5,39.9,233.36,39.69Zm2.39,94.16c1.11-.27,1.77-.66,2-1.14h-4.06a1.7,1.7,0,0,1-.31,2,1.84,1.84,0,0,0-.21.52c0,.14.31.21.94.21C234.09,134.65,234.64,134.13,235.75,133.85Zm1.88-87.91h-2.19l3.54.41c-.14,0-.21-.13-.21-.41V45.1a2.16,2.16,0,0,1,.84.11l-.32-.94q.63-.1.63-1.77h-1.67v1.77l-.83.63Zm.73,62.08c.55-.55.59-1,.1-1.46-.21.35-.52.38-.94.11l-1.25-.63a2.11,2.11,0,0,0,.84,3A3.81,3.81,0,0,0,238.36,108Zm-.32-7.4a3.53,3.53,0,0,1-1.45,1.67l2,.52a1.08,1.08,0,0,0,1.56-.31A2.88,2.88,0,0,0,238,100.62Zm.73-55.52h-.31a5.82,5.82,0,0,1-1-.2Zm-.1-17.91c-.9.07-1.25.8-1,2.19C238.32,29.1,238.67,28.37,238.67,27.19Zm.62,98.23h.53l-.32.83.84-.21c0,.63.14,1,.41,1q.84.84.84-.21c0-.27-.25-.55-.73-.83l.41-.83-.93.21c-.35-.7-.25-1.22.31-1.57a1.83,1.83,0,0,0,.83-1c-1-.21-1.63,0-2,.47A2.76,2.76,0,0,0,239.29,125.42Zm.53-20.52a4.06,4.06,0,0,0-.53,2.81,9.56,9.56,0,0,1,1.15-.31,6.77,6.77,0,0,0,2.6-.32c.28-.06.42-.34.42-.83a1,1,0,0,1-1.2-.36,6.46,6.46,0,0,1-.67-1.83c-.49-1.39-1.08-1.73-1.77-1C240.16,103.37,240.16,104,239.82,104.9Zm3.12,28.22V131a2.61,2.61,0,0,0-2.6,1.25,1.26,1.26,0,0,1,1.25,1c.27.91.55,1.43.83,1.57A2.46,2.46,0,0,0,242.94,133.12Zm1-12.91a3,3,0,0,1,.52-1.56,3.41,3.41,0,0,0-1.82-.42c-.45.07-.68.56-.68,1.46a1,1,0,0,1,.94.21A1,1,0,0,0,244,120.21Zm1.56,5.21c.7.14,1.15,0,1.36-.26a2.85,2.85,0,0,0,.1-1.83,1.4,1.4,0,0,0-1.71.58A1,1,0,0,0,245.54,125.42Zm4.59-17.09a1.74,1.74,0,0,0-.94-1.87c-.76-.56-1.32-.45-1.67.31.28,0,.66.35,1.15,1S249.57,108.61,250.13,108.33Z"/><path class="cls-1" d="M343.67,3.33c1.66,1.32,2.5,3.86,2.5,7.61q0,5.1-.21,10.94t-.21,8.54v2.71A9,9,0,0,1,344.66,38q-1.1,1.66-4.74,1.67a33.18,33.18,0,0,1-5.31-.42,34.78,34.78,0,0,0-5.53-.42h-6.45q-.31,4.9-.32,9.69V61.67a3,3,0,0,0-2.5-1.36h-.73v.52a1.33,1.33,0,0,1-.93,1.25c-.7.28-1,.56-1,.84a3.45,3.45,0,0,0,.72,1.46,17,17,0,0,0-7.91,7.5,3.69,3.69,0,0,0,.67,1.51,2.11,2.11,0,0,0,.79.67,6.73,6.73,0,0,0,1.14.21,3.27,3.27,0,0,1,2.92,2.19v-.31a1.67,1.67,0,0,0-.31-1.15,1.61,1.61,0,0,1-.32-1.15,3.64,3.64,0,0,0,1.05.11c1.18,0,2.11-.87,2.81-2.61s1.42-2.5,2.6-2.5l1.25.21a9.63,9.63,0,0,0,.11,2.09c0,.2,0,.31.1.31v2.39q0,13.44-.31,26.67.31,4.07.31,8.23c0,2.78,0,4.86-.1,6.25-.07.69-.13,1.75-.16,3.18s-.05,2.48-.05,3.17v13.86a20.18,20.18,0,0,1-.11,2.39,6.91,6.91,0,0,0,0,2.4c0,1.46,0,2.54.11,3.23v3.33a4.45,4.45,0,0,1-1.15,3.13,3.77,3.77,0,0,1-2.91,1.25,22.84,22.84,0,0,1-2.61-.11H313q-5.62,0-8.33.11-5.41.21-8.33.21h-3.86c-3.33.13-5.73-.35-7.19-1.46A2.8,2.8,0,0,1,284,147c0-1.67,0-2.92.1-3.75s.11-1.94.11-3.54c0-2-.07-5.17-.21-9.48V106.35q-.32-4.26-.31-12.81,0-4.58.21-14t.2-14c0-1.53,0-2.68-.1-3.44a26.59,26.59,0,0,1,0-3.34q.21-13.32.21-19.37-3.54.21-5.31.21H274.5a70,70,0,0,1-7.5-.31c-3.47-.28-5.49-1.39-6-3.34a12.51,12.51,0,0,1-.42-3.75,23.4,23.4,0,0,1,.11-2.5V27q0-2.4-.32-5.94a57,57,0,0,1-.41-7.08q0-9.17,4-11A74.7,74.7,0,0,1,276.58,2q11.67-.21,19.59-.21,4.89,0,15.1-.21t14.38-.21q7.39,0,12,.42a6.78,6.78,0,0,0,3.43.73A5.11,5.11,0,0,1,343.67,3.33Zm-69.27,16a1.2,1.2,0,0,0,.21-.37c.06-.17.12-.31.15-.42a1.81,1.81,0,0,1,.21-.36,1.61,1.61,0,0,0,.21-.37.77.77,0,0,1,.21-.31c.1-.1.2-.21.31-.31A2.38,2.38,0,0,1,276,17l.31-.21a1.36,1.36,0,0,1,.42-.16,2.79,2.79,0,0,1,.47-.05c-.49-1.25-1.7-1.87-3.65-1.87V15a1.27,1.27,0,0,0,.32.94,2.7,2.7,0,0,1,.31,1.35c-1.11,0-1.67-.38-1.67-1.14a9.19,9.19,0,0,1,.21-1.36,8.64,8.64,0,0,0,.21-1.46,2,2,0,0,0-.52-1.45,14.77,14.77,0,0,1-2.92.52,2.26,2.26,0,0,1-1.82-.68,5,5,0,0,1-.78-2.55,2.84,2.84,0,0,0-1.25.21c-.21.13-.32.27-.32.41a1.48,1.48,0,0,0,.53,1,2,2,0,0,1,.41,1.25.86.86,0,0,1-.41.63,4.3,4.3,0,0,0,2.91.83h1.36a1.42,1.42,0,0,1,1,.42v6q-.84-.11-1.56-2.19c-.56-1.25-1-1.87-1.25-1.87a1,1,0,0,0-1.05.62.81.81,0,0,1-.93.73,3.44,3.44,0,0,0,2,2.92l1.56.83a5.32,5.32,0,0,1,1.25,1C272.49,22.08,273.56,21.18,274.4,19.38Zm5.31-8.44a4.26,4.26,0,0,1,2.29.83,3.7,3.7,0,0,0,2.4.94,3.46,3.46,0,0,0-2.61-2.92l-1.66-.41a4.59,4.59,0,0,1-1.67-.73c-.42,0-.63.1-.63.31s.14.35.42.62a1.7,1.7,0,0,1,.31,1.05.84.84,0,0,1-.1.52A10.14,10.14,0,0,1,279.71,10.94Zm-.94,25.73c.42-.14.63-.38.63-.73a3,3,0,0,0-.32-1.36,1.71,1.71,0,0,1-.31-1v-.31c-.48,0-.73.31-.73.94A4,4,0,0,0,278.77,36.67Zm6-5.84a1.79,1.79,0,0,0,.73-.1,4.8,4.8,0,0,0-.05-.78,1.11,1.11,0,0,0-.31-.63,2.85,2.85,0,0,1-.37-.41,1,1,0,0,0-.47-.32,5.33,5.33,0,0,0-.52-.2l-.62-.21a2.7,2.7,0,0,0-.57-.16,1.36,1.36,0,0,1,.2.42A4,4,0,0,0,283,29l.32.94c-.28.07-.42.41-.42,1s.21,1,.62,1a1.3,1.3,0,0,0,.52-.1h.63A3.09,3.09,0,0,0,284,31c-.21-.07-.38-.38-.52-.94A1.31,1.31,0,0,0,284.81,30.83Zm-1.35-.73a.26.26,0,0,1-.1-.2Zm4.27-9a2.54,2.54,0,0,0,.42,1.14,5.13,5.13,0,0,1,1.87-.73,1,1,0,0,1,.73.21c.07.21.35.31.83.31a3.64,3.64,0,0,0,1.57-.41,6.64,6.64,0,0,0-1-3.23,4.72,4.72,0,0,1-.94-2.92,5.6,5.6,0,0,1,.31-1.77,6.24,6.24,0,0,1-2.19-2.08.46.46,0,0,0,.52-.52c0-.28-.17-.49-.52-.63a3.45,3.45,0,0,0-.31,1.36,3.15,3.15,0,0,0,.1.93,2,2,0,0,0,.06.37c0,.17.07.36.1.57a3.35,3.35,0,0,1,.05.63c-.69,0-1,.06-1,.2s.17.28.52.42a1,1,0,0,1,.52.63,1.52,1.52,0,0,1-1.14-.42,2.46,2.46,0,0,0-1-.31c-.35,0-.56.24-.63.73.76.34,1.15.66,1.15.93q0,.84-2.4,1.77c.28.63.66.94,1.15.94a1.42,1.42,0,0,0,1-.42,1.42,1.42,0,0,1,1-.41,1.22,1.22,0,0,1,.83.41c-.35.49-.66.91-.93,1.25A1.43,1.43,0,0,0,287.73,21.15Zm2.6,16.25A3.29,3.29,0,0,0,292,37a3.4,3.4,0,0,1,1.56-.63h.63l.73.53a4.62,4.62,0,0,0,.94-.63,2.45,2.45,0,0,1-.73-.31.6.6,0,0,0-.42-.11.42.42,0,0,0-.31.11l-.21-.21-.63.31a2.38,2.38,0,0,1-1.45-1,1.68,1.68,0,0,0-1.25-.83.46.46,0,0,0-.53.52.42.42,0,0,1,.11.31c0,.14-.18.38-.52.73l-.84.62C289.08,37.05,289.5,37.4,290.33,37.4Zm1.88,3.23c0,.76.59,1.52,1.77,2.29a6.33,6.33,0,0,1,2.5,2.39L298,44.17c-.48,0-.73-.11-.73-.32a.72.72,0,0,1,.21-.52.42.42,0,0,0,.11-.31,5.49,5.49,0,0,0-1.57-.62,10.71,10.71,0,0,1-3.12-1.46l-.42-.42-.1-.42c0,.21,0,.32-.11.32A.29.29,0,0,0,292.21,40.63Zm2.6,42.29a11.77,11.77,0,0,0,3.23-.73c1.39-.49,2.09-1,2.09-1.56,0-.28-.63-.63-1.88-1-.21-.07-.45-.15-.73-.26a2,2,0,0,0-.62-.15L296,79a3.33,3.33,0,0,0-.42,2A2.47,2.47,0,0,1,294.81,82.92Zm3.86-35.21c0-.21-.31-.31-.94-.31q-.42,0-.42.93C298.22,48.33,298.67,48.13,298.67,47.71ZM300,30.83c.35.35.52.59.52.73,0,.84-.93,1.32-2.81,1.46l.83.63a2.5,2.5,0,0,0,2,1,3.62,3.62,0,0,0,.94-2.29c0-1-.45-1.57-1.35-1.57Zm.31,110.11c.56,0,.84-.38.84-1.15,0-1.18-.56-1.77-1.67-1.77a1.27,1.27,0,0,0-1.46,1.25h.42a.94.94,0,0,1,.94.83Q299.61,140.94,300.33,140.94Zm2.61-102.09a.94.94,0,0,0-.63-.83,2.32,2.32,0,0,1-.93-.52,6.41,6.41,0,0,1-1.57-1.15l-1.25,1.46a16,16,0,0,0,2.3,1.25l2.18.84c-.14-.14-.21-.25-.21-.32a.59.59,0,0,1,.11-.41Zm-3.65,78.75a4,4,0,0,1,.32,1.77.84.84,0,0,1-.11.53c-.07,0-.1.07-.1.2a.31.31,0,0,1-.11.21l-.31.31.73-.2a6.32,6.32,0,0,0,2.81-1.88,2.62,2.62,0,0,0,.63-1.56,2.1,2.1,0,0,0-.11-.83c-.28-.49-1.14-.73-2.6-.73h-1a.46.46,0,0,0-.52.52A2.38,2.38,0,0,0,299.29,117.6Zm4.38,24.9c.55,0,.83-.24.83-.73l-.1-.62-1.67.31a1.9,1.9,0,0,0-1.25.94h1.25A3.18,3.18,0,0,0,303.67,142.5Zm1-114c0,.28.31.42.94.42s.93-.24.93-.73a.9.9,0,0,0-.2-.63c0,.07-.28.18-.84.32S304.71,28.26,304.71,28.54ZM309.29,17c-1.8,0-2.71.59-2.71,1.77a2.61,2.61,0,0,0,.32,1.15,3.46,3.46,0,0,0,1.14-.16,1.26,1.26,0,0,0,.68-.78c.17-.42.28-.68.31-.78S309.15,17.67,309.29,17Zm5,30a.4.4,0,0,0,.26-.16,1.91,1.91,0,0,1,.47-.31,5.59,5.59,0,0,1,.63-.26l-.21-.42h-2.71l-.94-1.66-1.66.21a2.84,2.84,0,0,0-1.88-.42,2.52,2.52,0,0,0-1.56.94l.73.93h.21l.73-.2a2,2,0,0,0,.72-.27,7.39,7.39,0,0,0,.84-.46l.21,1.56,1.87-.21.73.42a3.44,3.44,0,0,1,.83.52A1.67,1.67,0,0,0,314.29,47Zm-6.66-21.35c.2.13.31.45.31.93v.63a.61.61,0,0,0,.42.21,1,1,0,0,0,.72-.21,1,1,0,0,1-.31-.73,10.08,10.08,0,0,1-.31-1.15,1,1,0,0,0-.73-.21h-.21a1.06,1.06,0,0,1-.62.11Zm3.12,50.72a4.52,4.52,0,0,0-2.5-.83.76.76,0,0,1-.1.31l-.32.73c-.07.35-.17.56-.31.63l-.1.31A15.13,15.13,0,0,0,309,78.65a1.42,1.42,0,0,1,.73,1.35,5.66,5.66,0,0,1-.52,1.67h2.39a2.21,2.21,0,0,1-.1-.84,3.34,3.34,0,0,1,.52-2,7.93,7.93,0,0,0,.94-1.35A4.39,4.39,0,0,1,310.75,76.35Zm.52,61.67a13.94,13.94,0,0,1,7.29-4.17,1.8,1.8,0,0,1-1-1.56.42.42,0,0,1,.11-.31v-.31a1.7,1.7,0,0,0-.32-1,3.51,3.51,0,0,1-1,.11,3.85,3.85,0,0,1-.94-.11,2.12,2.12,0,0,1-.78-.36,4.16,4.16,0,0,1-.52-.42,7.46,7.46,0,0,1-.52-.62c-.24-.31-.4-.5-.47-.57a2.77,2.77,0,0,1,.63-1.88,2.82,2.82,0,0,0,.52-1.35c0-.35-.38-.7-1.15-1v.42a3.63,3.63,0,0,1-1.77,3,9.87,9.87,0,0,0-3.12,2.81,4.25,4.25,0,0,1,1.77,1.15c.62.7,1.14,1,1.56,1,.14,0,.28-.1.42-.31h-.11c-.48,0-.73-.56-.73-1.67s.28-1.77.84-1.77H313v4.79h-.41a2.32,2.32,0,0,0-1.67.52,3.93,3.93,0,0,1-1.46.84A3.31,3.31,0,0,0,311.27,138Zm-.41-50.52a1.35,1.35,0,0,1-.42-1.15,2.19,2.19,0,0,1,.1-.83c-1.32,0-2,.7-2,2.08,0,1,.66,1.46,2,1.46.42,0,.63-.14.63-.41A1.67,1.67,0,0,0,310.86,87.5Zm-.94-56.87c-.35,0-.63.22-.84.67a2.94,2.94,0,0,0-.31,1.1c0,.34.11.52.31.52h.11a.42.42,0,0,0,.31-.11.29.29,0,0,1-.1-.21,1.15,1.15,0,0,1,.41-.72,1.17,1.17,0,0,0,.42-.73C310.23,30.8,310.13,30.63,309.92,30.63ZM312,107.29a12.51,12.51,0,0,1,4.06-1l-.93-1.56a5.62,5.62,0,0,0-2.4-2.61,4.11,4.11,0,0,0-2-.41,6.48,6.48,0,0,1-.94,3.43,5.94,5.94,0,0,0-.93,3,3.25,3.25,0,0,0,1.25,2.4A6.09,6.09,0,0,1,312,107.29Zm.83,4.69c0-.56-.41-.83-1.25-.83s-1.14.24-1.14.72l.83.53a2.33,2.33,0,0,0,1,.2C312.66,112.6,312.83,112.4,312.83,112Zm.84-13.75a1.76,1.76,0,0,0-.11.73,1.61,1.61,0,0,0,.68,1.35,2.26,2.26,0,0,0,1.41.52c.55,0,.86-.21.93-.62-.34,0-.66-.38-.93-1.15s-.66-.94-1.15-.94A2.1,2.1,0,0,0,313.67,98.23Zm3.64,47.71a2.48,2.48,0,0,0,.94-2.09,11.54,11.54,0,0,0-.1-1.77,12.88,12.88,0,0,1-.21-2.08q-2.4.84-2.4,4.06a1.38,1.38,0,0,0,.21.47,5.19,5.19,0,0,0,.63.83A1.65,1.65,0,0,0,317.31,145.94Zm2.3-23.44q-.11-3.44-3-4.17a9.19,9.19,0,0,1,.21,1.36,4.74,4.74,0,0,1-.31,1.87,4.24,4.24,0,0,0-.42,2.09.28.28,0,0,0,.32.31h.41a1.75,1.75,0,0,0,1.57-.63A4,4,0,0,1,319.61,122.5Zm-2.09-94.06a3.55,3.55,0,0,0,3.34-3.23,3.28,3.28,0,0,0-2.71-2.81l.21,1.14a3.29,3.29,0,0,1-.63,2.19A2.29,2.29,0,0,0,317,27.4,3.2,3.2,0,0,0,317.52,28.44Zm6.36-.84a2.13,2.13,0,0,0,.1.94,2.46,2.46,0,0,0,1,.11,1.54,1.54,0,0,0-.15-.89A1.83,1.83,0,0,0,323.88,27.6ZM328,9.17l.63.31a.48.48,0,0,0-.52-.31Zm9.69,12.91v-.93c0-1.18-.31-1.77-.94-1.77q0,.72-.93.93c-.63.14-.94.42-.94.84a.6.6,0,0,0,.1.41h.31a1.27,1.27,0,0,1,.94.32,1,1,0,0,0,.84.31A1.43,1.43,0,0,0,337.73,22.08Z"/></g></g></svg>